PathFileType	4	(X/Y/Z)	c:/Users/goper/Files/vsCode/490R/osim_files/A03/A03_Slow_03.trc
DataRate	CameraRate	NumFrames	NumMarkers	Units                	OrigDataRate	OrigDataStartFrame	OrigNumFrames
250.00	250.00	6	36	mm	250.0	1484	2967
                Frame#	Time	LPSIS			LASIS			LTH1			LTH2			LTH3			LTH4			LLFE			LMFE			LSH1			LSH2			LSH3			LSH4			LLMAL			LMMAL			LCAL			LMTP5			LTOE			LMTP1			RPSIS			RASIS			RTH1			RTH2			RTH3			RTH4			RLFE			RMFE			RSH1			RSH2			RSH3			RSH4			RLMAL			RMMAL			RCAL			RMTP1			RTOE			RMTP5		
		X1	Y1	Z1	X2	Y2	Z2	X3	Y3	Z3	X4	Y4	Z4	X5	Y5	Z5	X6	Y6	Z6	X7	Y7	Z7	X8	Y8	Z8	X9	Y9	Z9	X10	Y10	Z10	X11	Y11	Z11	X12	Y12	Z12	X13	Y13	Z13	X14	Y14	Z14	X15	Y15	Z15	X16	Y16	Z16	X17	Y17	Z17	X18	Y18	Z18	X19	Y19	Z19	X20	Y20	Z20	X21	Y21	Z21	X22	Y22	Z22	X23	Y23	Z23	X24	Y24	Z24	X25	Y25	Z25	X26	Y26	Z26	X27	Y27	Z27	X28	Y28	Z28	X29	Y29	Z29	X30	Y30	Z30	X31	Y31	Z31	X32	Y32	Z32	X33	Y33	Z33	X34	Y34	Z34	X35	Y35	Z35	X36	Y36	Z36

1484	5.93200	352.42828	1050.33643	251.62883	120.69109	972.62738	392.38260	38.40681	636.30273	432.91153	14.46490	601.24652	428.76474	-9.69845	665.05200	407.31644	-26.32934	624.10309	405.29648	21.91462	553.16486	420.06613	-3.52761	545.22131	266.03751	30.61929	458.45901	424.70605	11.43795	414.04776	426.38104	-29.05166	475.16974	420.36105	-37.43594	428.04712	417.84985	-106.67967	107.42320	416.83771	-117.85103	113.85976	319.76151	-48.97558	69.00565	363.06479	-267.24182	105.55882	433.17813	-284.05795	142.11684	361.99286	-265.59790	109.43350	318.22592	346.57864	1065.20386	170.45743	106.73050	956.23138	91.58053	271.21158	603.24243	55.53772	277.47787	559.71863	64.42381	210.98294	590.36810	66.18951	224.62575	548.49860	73.71547	265.02762	522.26190	81.62029	232.06763	523.07111	202.43282	336.23557	471.81723	79.27457	350.35593	433.25629	67.63309	279.78003	446.12689	76.54625	301.64984	405.39087	67.48376	438.45956	128.90840	110.54789	0.00000	0.00000	0.00000	499.24319	85.87680	167.13936	282.48679	50.27097	195.25362	258.79395	71.39688	148.10962	295.19684	45.08806	78.83047
1485	5.93600	348.34360	1049.81006	252.46127	115.68431	972.18597	391.81598	35.24668	635.45038	433.42737	11.62705	600.29346	429.48935	-13.03922	663.80304	407.89413	-29.37311	622.77545	406.04248	19.71183	552.45850	420.84201	-5.81853	544.55487	266.92844	28.63955	457.70120	425.44449	9.50956	413.25522	427.10211	-31.02373	474.38254	421.15656	-39.39062	427.25925	418.62521	-108.65311	106.65446	417.60834	-119.82675	113.22607	320.14502	-50.75505	69.23013	363.44623	-268.79459	104.15512	434.00369	-286.05228	140.87895	362.90799	-267.55374	108.20142	319.07730	341.61331	1064.55310	171.27364	103.27004	955.34302	92.06997	268.98666	602.92621	55.81260	275.18988	559.28705	64.66573	209.18611	589.68915	66.49246	222.43625	547.90833	73.79124	262.93100	521.88538	81.77962	229.61633	522.33838	202.49762	334.41086	471.74591	79.54800	348.82169	433.20673	67.86619	278.12411	445.77386	76.64640	300.28369	405.22150	67.52119	438.26233	129.22017	110.57928	0.00000	0.00000	0.00000	499.08859	86.08669	167.13281	282.46616	50.23516	195.24028	258.77997	71.29460	148.08406	295.23608	45.02424	78.81290
1486	5.94000	344.22916	1049.23962	253.39334	110.85294	970.67316	392.30771	32.54893	634.62598	433.99866	9.13454	599.25885	430.14737	-16.18185	662.48889	408.71335	-32.10015	621.34576	406.86920	17.53710	551.86578	421.66626	-8.30113	544.15552	267.87915	26.59218	457.03125	426.12534	7.52568	412.60867	427.78235	-33.05861	473.69214	421.96802	-41.41932	426.60211	419.46448	-110.68715	106.07884	418.27798	-122.16350	112.70592	320.34592	-52.30156	69.91656	363.56357	-270.38681	102.70113	434.93823	-288.26810	139.54472	363.86234	-269.73688	106.91042	319.96146	337.60620	1064.06982	172.20012	99.67577	954.41272	92.53967	266.70300	602.56744	56.05734	272.92545	558.93982	64.86903	206.78166	589.23199	66.22015	220.25917	547.30585	73.78857	260.06055	521.33350	81.81724	227.02963	521.55811	202.47029	332.61673	471.65573	79.82200	347.58456	433.56946	68.33321	276.49899	445.41370	76.74503	298.83130	404.98175	67.60727	438.03354	129.51801	110.58882	0.00000	0.00000	0.00000	498.93958	86.32337	167.13286	282.42072	50.20677	195.22479	258.77051	71.25480	148.04871	295.24698	44.96136	78.80373
1487	5.94400	340.10986	1048.69861	254.39014	107.01144	970.79578	393.11069	29.95980	633.71301	434.48297	6.85853	598.15137	430.70853	-19.12501	661.24060	409.50543	-34.61436	619.97198	407.65390	15.19681	551.38049	422.52673	-11.27165	544.00482	268.83899	24.49938	456.52014	426.74673	6.41188	411.84058	428.58694	-35.21511	473.10538	422.79691	-43.48709	425.97275	420.26227	-112.27899	105.34348	418.96692	-124.32196	112.15662	320.60095	-54.19607	70.11754	363.78519	-271.73959	100.49303	435.87766	-290.28748	137.52666	365.02924	-271.62344	105.28084	320.93747	333.59067	1063.58679	173.20561	96.12228	953.53857	92.98239	264.56799	602.36743	56.36432	271.32764	558.80054	64.62377	204.44220	588.59937	66.24586	217.95969	546.71252	73.82050	257.99780	520.90222	81.95716	224.51727	520.74884	202.54573	330.72260	471.54794	80.09989	345.96680	433.59259	68.55870	275.06964	445.09656	76.69418	297.36163	404.74911	67.64169	438.23923	129.87299	110.72839	0.00000	0.00000	0.00000	498.78268	86.61238	167.11093	282.43854	50.16885	195.21182	258.78979	71.14278	148.02502	295.25769	44.88083	78.77025
1488	5.94800	336.01633	1048.15137	255.43010	102.63118	970.02643	393.63470	27.45667	632.91870	434.95587	4.63945	597.17468	431.31796	-21.82009	660.08795	410.19281	-37.09997	618.74420	408.38770	12.63381	550.91827	423.37604	-14.53177	543.79352	269.77249	22.33792	456.06360	427.29330	4.34882	411.26123	429.10153	-37.47196	472.42969	423.63229	-45.54099	425.27802	421.07159	-113.36901	104.64789	419.38693	-125.95737	111.62675	321.04437	-54.85611	70.62052	363.73303	-272.73019	97.68892	436.83426	-291.94830	134.94966	366.35828	-273.03867	103.06631	322.02127	329.58533	1063.07031	174.20262	92.49738	952.64307	93.44933	262.01300	601.92798	56.65322	268.88538	558.42114	64.86205	201.98125	587.74274	66.66714	215.64003	546.14441	73.84589	255.83220	520.46906	82.07387	221.87120	519.92108	202.52065	328.79202	471.47202	80.35059	344.22656	433.56909	68.81584	272.98624	444.66507	76.87269	295.83371	404.52277	67.69711	437.28183	129.99893	110.66539	0.00000	0.00000	0.00000	498.64075	86.92964	167.07567	282.46967	50.14660	195.20631	258.78363	71.03333	147.99216	295.24841	44.84018	78.77476
1489	5.95200	331.89307	1047.64124	256.52402	98.31133	969.39197	394.23624	25.05696	632.18512	435.50458	2.23570	596.38159	431.98911	-24.38901	659.15851	410.82990	-39.57018	617.80432	409.21103	9.92030	550.43542	424.16895	-17.93474	543.55835	270.65491	20.08539	455.59888	427.79596	2.26685	410.70743	429.58899	-39.85203	471.67929	424.36633	-47.61157	424.53653	421.80832	-114.13720	103.94379	419.60669	-127.17770	110.93631	321.44888	-55.26225	70.69028	363.84073	-273.32977	94.83303	437.77628	-293.50760	131.62242	367.35083	-274.28528	100.46772	323.01071	325.54099	1062.54907	175.24556	88.92091	951.75146	93.89210	259.43982	601.55481	56.94117	265.74231	557.83875	64.92543	199.42120	587.11145	66.68236	213.21838	545.52521	73.85474	253.55687	520.01196	82.17093	219.19275	519.10803	202.49422	326.75342	471.43448	80.57343	342.47516	433.58841	69.06898	270.35120	443.60834	77.54180	294.28210	404.28540	67.72954	437.00790	130.38846	110.65515	0.00000	0.00000	0.00000	498.45044	87.27890	167.04196	282.44513	50.11828	195.15971	258.75003	70.95998	147.96135	295.23572	44.73438	78.74341
